<?xml version="1.0" encoding="UTF-8" standalone="no"?>
<!-- Created with Inkscape (http://www.inkscape.org/) -->

<svg
   width="180"
   height="180"
   viewBox="0 0 180 180"
   version="1.1"
   id="svg1"
   inkscape:version="1.3-beta (cedbd6c, 2023-05-28)"
   sodipodi:docname="icon.svg"
   xmlns:inkscape="http://www.inkscape.org/namespaces/inkscape"
   xmlns:sodipodi="http://sodipodi.sourceforge.net/DTD/sodipodi-0.dtd"
   xmlns="http://www.w3.org/2000/svg"
   xmlns:svg="http://www.w3.org/2000/svg">
  <sodipodi:namedview
     id="namedview1"
     pagecolor="#ffffff"
     bordercolor="#000000"
     borderopacity="0.25"
     inkscape:showpageshadow="2"
     inkscape:pageopacity="0.0"
     inkscape:pagecheckerboard="0"
     inkscape:deskcolor="#d1d1d1"
     inkscape:document-units="px"
     inkscape:zoom="1.3115105"
     inkscape:cx="62.904568"
     inkscape:cy="48.417456"
     inkscape:window-width="2098"
     inkscape:window-height="1212"
     inkscape:window-x="194"
     inkscape:window-y="40"
     inkscape:window-maximized="0"
     inkscape:current-layer="layer1"
     showguides="true">
    <sodipodi:guide
       position="180,180"
       orientation="0.70710678,-0.70710678"
       id="guide1"
       inkscape:locked="false" />
    <sodipodi:guide
       position="0,180"
       orientation="-0.70710678,-0.70710678"
       id="guide2"
       inkscape:locked="false"
       inkscape:label=""
       inkscape:color="rgb(0,134,229)" />
  </sodipodi:namedview>
  <defs
     id="defs1" />
  <g
     inkscape:label="Layer 1"
     inkscape:groupmode="layer"
     id="layer1">
    <rect
       style="fill:#000000;fill-rule:evenodd;stroke:none;stroke-width:6.3428;stroke-linejoin:bevel"
       id="rect1"
       width="180"
       height="180"
       x="0"
       y="0" />
    <path
       d="m 52.239568,37.135389 c 0,-4.177246 -3.374844,-7.55209 -7.552091,-7.55209 -4.177246,0 -7.55209,3.374844 -7.55209,7.55209 v 7.552084 71.744837 26.4323 c 0,4.17725 3.374844,7.55209 7.55209,7.55209 4.177247,0 7.552091,-3.37484 7.552091,-7.55209 v -30.20835 l 15.174976,-3.79964 c 9.699711,-2.43083 19.965827,-1.29801 28.91033,3.16243 10.431316,5.21566 22.538256,5.85287 33.441586,1.74643 l 8.18929,-3.06804 c 2.95004,-1.10921 4.90886,-3.91764 4.90886,-7.08008 V 45.183083 c 0,-5.428064 -5.71127,-8.968105 -10.57292,-6.537278 l -2.26563,1.132815 c -10.92692,5.475264 -23.78908,5.475264 -34.716002,0 -8.283687,-4.153646 -17.794602,-5.192059 -26.786307,-2.950037 l -16.284183,4.082852 z"
       id="path1"
       style="fill:#f9f9f9;stroke-width:0.236002" />
  </g>
</svg>
